<?xml version="1.0" encoding="utf-8"?>
<svg version="1.1" xmlns:xlink="http://www.w3.org/1999/xlink" width="34px" height="34px" xmlns="http://www.w3.org/2000/svg">
  <g transform="matrix(1 0 0 1 -1283 -63 )">
    <path d="M 8.759493827819824 23.464252471923828  L 8.759493827819824 19.63083839416504  C 8.759470472556131 18.6557999253273  9.59620749950409 17.863534689415246  10.632911682128906 17.856990814208984  L 14.430379867553711 17.856990814208984  C 15.472030997276306 17.856990814208984  16.316455841064453 18.651169538497925  16.316455841064453 19.63083839416504  L 16.316455841064453 23.476158142089844  C 16.316214130536537 24.304000437259674  17.018756449222565 24.980597499758005  17.898733139038086 25  L 20.43037986755371 25  C 22.954111337661743 25  25 23.075847864151  25 20.702287673950195  L 25 9.797294616699219  C 24.986523289233446 8.863534331321716  24.52036279439926 7.986686706542969  23.73417854309082 7.416290760040284  L 15.075949668884277 0.8566264510154724  C 13.559124827384949 -0.2855420708656311  11.40290081501007 -0.2855420708656311  9.886075973510742 0.8566264510154724  L 1.2658227682113647 7.4281954765319815  C 0.4766560196876526 7.996277987957001  0.00971932802349329 8.874583065509796  0 9.809199333190918  L 0 20.702287673950195  C 0 23.075847864151  2.045888662338257 25  4.569620132446289 25  L 7.101265907287598 25  C 8.003097951412201 25  8.734177589416504 24.312422275543213  8.734177589416504 23.464252471923828  " stroke-width="1" stroke-dasharray="0" stroke="rgba(255, 255, 255, 1)" fill="none" transform="matrix(1 0 0 1 1287 63 )" class="stroke" />
  </g>
  <style>svg { filter: drop-shadow(0px 4px 2px rgba(0, 0, 0, 0.25098039215686274)); }</style>
</svg>