<?xml version="1.0" encoding="utf-8"?>
<svg version="1.1" xmlns:xlink="http://www.w3.org/1999/xlink" width="21px" height="21px" xmlns="http://www.w3.org/2000/svg">
  <defs>
    <pattern id="BGPattern" patternUnits="userSpaceOnUse" alignment="0 0" imageRepeat="None" />
    <mask fill="white" id="Clip274">
      <path d="M 18.895068513394893 14.63244788361508  C 17.733284594743246 13.118399724270539  16.179089448514535 11.947335160290805  14.399085529684632 11.244787217758315  C 15.433580406382372 10.435345982736434  16.188668065762737 9.325361334359405  16.559300263162513 8.069257094536443  C 16.92993246056228 6.813152854713479  16.89767722264934 5.473393206803481  16.4670223131792 4.236368981660546  C 16.036367403709058 2.9993447565176106  15.22872908076556 1.9265715847681515  14.156466975016956 1.1672959355138666  C 13.084204869268351 0.408020286259582  11.800641981536359 0  10.484349981699667 0  C 9.168057981862976 0  7.884494590979676 0.408020286259582  6.812232485231071 1.1672959355138666  C 5.739970379482468 1.9265715847681515  4.9323310502363515 2.9993447565176106  4.50167614076621 4.236368981660546  C 4.0710212312960685 5.473393206803481  4.038766496534437 6.813152854713479  4.409398693934209 8.069257094536443  C 4.78003089133398 9.325361334359405  5.535119053865654 10.435345982736434  6.569613930563394 11.244787217758315  C 4.796985580977315 11.951073264936468  3.2503057542683758 13.122520439998606  2.0944620399651646 14.63424428549289  C 0.9386183256619528 16.14596813098717  0.21694052441780723 17.94129642098796  0.00636470485261045 19.828836045958152  C -0.008877867021296094 19.966644557845903  0.003322119408443571 20.106090769638467  0.04226781923387163 20.23921029420483  C 0.08121351905929969 20.372329818771192  0.14614223941039006 20.4965171853516  0.23334707984637498 20.604681500973236  C 0.40946519526295977 20.823129192140513  0.6656268221265245 20.96305020414562  0.9454792340110733 20.993665056330627  C 1.225331645895622 21.02427990851563  1.5059508918213185 20.943080643718538  1.7256038282914217 20.767928896130943  C 1.945256764761525 20.592777148543348  2.085950645951041 20.338021060494732  2.116734410000463 20.05970421107672  C 2.3484368926244916 18.008339365024476  3.3319763941532092 16.113781388066077  4.879439124298211 14.738004257798895  C 6.426901854443214 13.362227127531714  8.42979840667794 12.601685115031675  10.5054541601844 12.601685115031673  C 12.581109913690861 12.601685115031675  14.584003950169045 13.362227127531714  16.131466680314045 14.738004257798895  C 17.678929410459048 16.113781388066077  18.662468408836457 18.008339365024476  18.894170891460483 20.05970421107672  C 18.92286087978405 20.317560765545274  19.046576947989823 20.55570747007236  19.241439886788083 20.728183879877307  C 19.43630282558634 20.900660289682254  19.68849873962394 20.995238858592614  19.949355664434304 20.993665056330627  C 19.949355664434304 20.993665056330627  20.065426633495097 20.993665056330627  20.065426633495097 20.993665056330627  C 20.342028342010053 20.962013610051084  20.594840034631904 20.822922796698446  20.76877178465469 20.60670107701191  C 20.942703534677474 20.390479357325376  21.023655963412654 20.114652716843985  20.993988348165754 19.83933023542372  C 20.78241732675925 17.94643830861913  20.056852432046536 16.14649604295962  18.895068513394893 14.63244788361508  Z M 13.468863415695848 9.270274345522592  C 12.677321311922471 10.057473223032336  11.603759629237862 10.499716778979709  10.484349981699667 10.49971677897971  C 9.649566677108254 10.49971677897971  8.833529909757655 10.253532692858123  8.13943293122439 9.792296721841788  C 7.445335952691126 9.331060750825456  6.9043523828095905 8.675489061416119  6.584894635803269 7.908481628425078  C 6.265436888796947 7.141474195434037  6.1818521827170985 6.297480746522572  6.344710327166232 5.483230008255966  C 6.5075684716153654 4.668979269989362  6.909555093127556 3.921041593673196  7.499836044552179 3.333999539736057  C 8.090116995976802 2.7469574857989176  8.842181533613813 2.34717708291237  9.660924751852962 2.185212548249558  C 10.47966797009211 2.0232480135867457  11.328317998958621 2.106374086715862  12.099557255600002 2.4240789550435835  C 12.870796512241382 2.7417838233713057  13.529985198905777 3.279797991880521  13.993765955287387 3.9700864298291454  C 14.457546711668996 4.660374867777769  14.705089073594934 5.4719342557658806  14.705089073594934 6.302137067726948  C 14.705089073594934 7.415404465398997  14.260405519469225 8.48307546801285  13.468863415695848 9.270274345522592  Z " fill-rule="evenodd" />
    </mask>
  </defs>
  <g transform="matrix(1 0 0 1 -2 -2 )">
    <path d="M 18.895068513394893 14.63244788361508  C 17.733284594743246 13.118399724270539  16.179089448514535 11.947335160290805  14.399085529684632 11.244787217758315  C 15.433580406382372 10.435345982736434  16.188668065762737 9.325361334359405  16.559300263162513 8.069257094536443  C 16.92993246056228 6.813152854713479  16.89767722264934 5.473393206803481  16.4670223131792 4.236368981660546  C 16.036367403709058 2.9993447565176106  15.22872908076556 1.9265715847681515  14.156466975016956 1.1672959355138666  C 13.084204869268351 0.408020286259582  11.800641981536359 0  10.484349981699667 0  C 9.168057981862976 0  7.884494590979676 0.408020286259582  6.812232485231071 1.1672959355138666  C 5.739970379482468 1.9265715847681515  4.9323310502363515 2.9993447565176106  4.50167614076621 4.236368981660546  C 4.0710212312960685 5.473393206803481  4.038766496534437 6.813152854713479  4.409398693934209 8.069257094536443  C 4.78003089133398 9.325361334359405  5.535119053865654 10.435345982736434  6.569613930563394 11.244787217758315  C 4.796985580977315 11.951073264936468  3.2503057542683758 13.122520439998606  2.0944620399651646 14.63424428549289  C 0.9386183256619528 16.14596813098717  0.21694052441780723 17.94129642098796  0.00636470485261045 19.828836045958152  C -0.008877867021296094 19.966644557845903  0.003322119408443571 20.106090769638467  0.04226781923387163 20.23921029420483  C 0.08121351905929969 20.372329818771192  0.14614223941039006 20.4965171853516  0.23334707984637498 20.604681500973236  C 0.40946519526295977 20.823129192140513  0.6656268221265245 20.96305020414562  0.9454792340110733 20.993665056330627  C 1.225331645895622 21.02427990851563  1.5059508918213185 20.943080643718538  1.7256038282914217 20.767928896130943  C 1.945256764761525 20.592777148543348  2.085950645951041 20.338021060494732  2.116734410000463 20.05970421107672  C 2.3484368926244916 18.008339365024476  3.3319763941532092 16.113781388066077  4.879439124298211 14.738004257798895  C 6.426901854443214 13.362227127531714  8.42979840667794 12.601685115031675  10.5054541601844 12.601685115031673  C 12.581109913690861 12.601685115031675  14.584003950169045 13.362227127531714  16.131466680314045 14.738004257798895  C 17.678929410459048 16.113781388066077  18.662468408836457 18.008339365024476  18.894170891460483 20.05970421107672  C 18.92286087978405 20.317560765545274  19.046576947989823 20.55570747007236  19.241439886788083 20.728183879877307  C 19.43630282558634 20.900660289682254  19.68849873962394 20.995238858592614  19.949355664434304 20.993665056330627  C 19.949355664434304 20.993665056330627  20.065426633495097 20.993665056330627  20.065426633495097 20.993665056330627  C 20.342028342010053 20.962013610051084  20.594840034631904 20.822922796698446  20.76877178465469 20.60670107701191  C 20.942703534677474 20.390479357325376  21.023655963412654 20.114652716843985  20.993988348165754 19.83933023542372  C 20.78241732675925 17.94643830861913  20.056852432046536 16.14649604295962  18.895068513394893 14.63244788361508  Z M 13.468863415695848 9.270274345522592  C 12.677321311922471 10.057473223032336  11.603759629237862 10.499716778979709  10.484349981699667 10.49971677897971  C 9.649566677108254 10.49971677897971  8.833529909757655 10.253532692858123  8.13943293122439 9.792296721841788  C 7.445335952691126 9.331060750825456  6.9043523828095905 8.675489061416119  6.584894635803269 7.908481628425078  C 6.265436888796947 7.141474195434037  6.1818521827170985 6.297480746522572  6.344710327166232 5.483230008255966  C 6.5075684716153654 4.668979269989362  6.909555093127556 3.921041593673196  7.499836044552179 3.333999539736057  C 8.090116995976802 2.7469574857989176  8.842181533613813 2.34717708291237  9.660924751852962 2.185212548249558  C 10.47966797009211 2.0232480135867457  11.328317998958621 2.106374086715862  12.099557255600002 2.4240789550435835  C 12.870796512241382 2.7417838233713057  13.529985198905777 3.279797991880521  13.993765955287387 3.9700864298291454  C 14.457546711668996 4.660374867777769  14.705089073594934 5.4719342557658806  14.705089073594934 6.302137067726948  C 14.705089073594934 7.415404465398997  14.260405519469225 8.48307546801285  13.468863415695848 9.270274345522592  Z " fill-rule="nonzero" fill="rgba(255, 255, 255, 1)" stroke="none" transform="matrix(1 0 0 1 2 2 )" class="fill" />
    <path d="M 18.895068513394893 14.63244788361508  C 17.733284594743246 13.118399724270539  16.179089448514535 11.947335160290805  14.399085529684632 11.244787217758315  C 15.433580406382372 10.435345982736434  16.188668065762737 9.325361334359405  16.559300263162513 8.069257094536443  C 16.92993246056228 6.813152854713479  16.89767722264934 5.473393206803481  16.4670223131792 4.236368981660546  C 16.036367403709058 2.9993447565176106  15.22872908076556 1.9265715847681515  14.156466975016956 1.1672959355138666  C 13.084204869268351 0.408020286259582  11.800641981536359 0  10.484349981699667 0  C 9.168057981862976 0  7.884494590979676 0.408020286259582  6.812232485231071 1.1672959355138666  C 5.739970379482468 1.9265715847681515  4.9323310502363515 2.9993447565176106  4.50167614076621 4.236368981660546  C 4.0710212312960685 5.473393206803481  4.038766496534437 6.813152854713479  4.409398693934209 8.069257094536443  C 4.78003089133398 9.325361334359405  5.535119053865654 10.435345982736434  6.569613930563394 11.244787217758315  C 4.796985580977315 11.951073264936468  3.2503057542683758 13.122520439998606  2.0944620399651646 14.63424428549289  C 0.9386183256619528 16.14596813098717  0.21694052441780723 17.94129642098796  0.00636470485261045 19.828836045958152  C -0.008877867021296094 19.966644557845903  0.003322119408443571 20.106090769638467  0.04226781923387163 20.23921029420483  C 0.08121351905929969 20.372329818771192  0.14614223941039006 20.4965171853516  0.23334707984637498 20.604681500973236  C 0.40946519526295977 20.823129192140513  0.6656268221265245 20.96305020414562  0.9454792340110733 20.993665056330627  C 1.225331645895622 21.02427990851563  1.5059508918213185 20.943080643718538  1.7256038282914217 20.767928896130943  C 1.945256764761525 20.592777148543348  2.085950645951041 20.338021060494732  2.116734410000463 20.05970421107672  C 2.3484368926244916 18.008339365024476  3.3319763941532092 16.113781388066077  4.879439124298211 14.738004257798895  C 6.426901854443214 13.362227127531714  8.42979840667794 12.601685115031675  10.5054541601844 12.601685115031673  C 12.581109913690861 12.601685115031675  14.584003950169045 13.362227127531714  16.131466680314045 14.738004257798895  C 17.678929410459048 16.113781388066077  18.662468408836457 18.008339365024476  18.894170891460483 20.05970421107672  C 18.92286087978405 20.317560765545274  19.046576947989823 20.55570747007236  19.241439886788083 20.728183879877307  C 19.43630282558634 20.900660289682254  19.68849873962394 20.995238858592614  19.949355664434304 20.993665056330627  C 19.949355664434304 20.993665056330627  20.065426633495097 20.993665056330627  20.065426633495097 20.993665056330627  C 20.342028342010053 20.962013610051084  20.594840034631904 20.822922796698446  20.76877178465469 20.60670107701191  C 20.942703534677474 20.390479357325376  21.023655963412654 20.114652716843985  20.993988348165754 19.83933023542372  C 20.78241732675925 17.94643830861913  20.056852432046536 16.14649604295962  18.895068513394893 14.63244788361508  Z " stroke-width="0" stroke-dasharray="0" stroke="rgba(121, 121, 121, 1)" fill="none" transform="matrix(1 0 0 1 2 2 )" class="stroke" mask="url(#Clip274)" />
    <path d="M 13.468863415695848 9.270274345522592  C 12.677321311922471 10.057473223032336  11.603759629237862 10.499716778979709  10.484349981699667 10.49971677897971  C 9.649566677108254 10.49971677897971  8.833529909757655 10.253532692858123  8.13943293122439 9.792296721841788  C 7.445335952691126 9.331060750825456  6.9043523828095905 8.675489061416119  6.584894635803269 7.908481628425078  C 6.265436888796947 7.141474195434037  6.1818521827170985 6.297480746522572  6.344710327166232 5.483230008255966  C 6.5075684716153654 4.668979269989362  6.909555093127556 3.921041593673196  7.499836044552179 3.333999539736057  C 8.090116995976802 2.7469574857989176  8.842181533613813 2.34717708291237  9.660924751852962 2.185212548249558  C 10.47966797009211 2.0232480135867457  11.328317998958621 2.106374086715862  12.099557255600002 2.4240789550435835  C 12.870796512241382 2.7417838233713057  13.529985198905777 3.279797991880521  13.993765955287387 3.9700864298291454  C 14.457546711668996 4.660374867777769  14.705089073594934 5.4719342557658806  14.705089073594934 6.302137067726948  C 14.705089073594934 7.415404465398997  14.260405519469225 8.48307546801285  13.468863415695848 9.270274345522592  Z " stroke-width="0" stroke-dasharray="0" stroke="rgba(121, 121, 121, 1)" fill="none" transform="matrix(1 0 0 1 2 2 )" class="stroke" mask="url(#Clip274)" />
  </g>
</svg>