<?xml version="1.0" encoding="utf-8"?>
<svg version="1.1" xmlns:xlink="http://www.w3.org/1999/xlink" width="70px" height="60px" xmlns="http://www.w3.org/2000/svg">
  <defs>
    <pattern id="BGPattern" patternUnits="userSpaceOnUse" alignment="0 0" imageRepeat="None" />
    <mask fill="white" id="Clip301">
      <path d="M 16.217010697933016 16.800000704251804  C 16.217010697933016 26.030769935021034  24.5307924950023 33.69230769230769  34.89736226537094 33.69230769230769  C 45.26393203573957 33.69230769230769  53.57771187511956 26.12307621882512  53.57771187511956 16.89230698805589  C 53.57771187511956 7.661537757286657  45.26393203573957 0  34.89736226537094 0  C 24.5307924950023 0  16.217010697933016 7.5692314734825725  16.217010697933016 16.800000704251804  Z M 21.143696352321427 16.89230698805589  C 21.143696352321427 10.061537669255182  27.302053909729267 4.430768526517428  34.89736226537094 4.430768526517428  C 42.49267062101261 4.430768526517428  48.651030136109746 9.969231385451097  48.651030136109746 16.800000704251804  C 48.651030136109746 23.630770023052513  42.49267062101261 29.169229360727165  34.89736226537094 29.169229360727165  C 27.302053909729267 29.169229360727165  21.143696352321427 23.723076306856598  21.143696352321427 16.89230698805589  Z M 0 57.784613976111785  C 0 58.984613932096046  1.129031965989903 60  2.4633428271942064 60  C 2.4633428271942064 60  67.5366552151165 60  67.5366552151165 60  C 68.8709660763208 60  70 58.984613932096046  70 57.784613976111785  C 70 46.15384439321665  59.42815867575184 36.646154550405655  46.49560638587063 36.646154550405655  C 46.49560638587063 36.646154550405655  23.504399487197272 36.646154550405655  23.504399487197272 36.646154550405655  C 10.571847197316062 36.646154550405655  0 46.15384439321665  0 57.784613976111785  Z M 5.131965039025138 55.569227952223564  C 6.363636697333403 47.35384368896485  14.061584011159947 41.07692307692308  23.504399487197272 41.07692307692308  C 23.504399487197272 41.07692307692308  46.49560638587063 41.07692307692308  46.49560638587063 41.07692307692308  C 55.938421861907955 41.07692307692308  63.6363633026666 47.35384368896485  64.86803496097487 55.569227952223564  C 64.86803496097487 55.569227952223564  5.131965039025138 55.569227952223564  5.131965039025138 55.569227952223564  Z " fill-rule="evenodd" />
    </mask>
  </defs>
  <g transform="matrix(1 0 0 1 -447 -399 )">
    <path d="M 16.217010697933016 16.800000704251804  C 16.217010697933016 26.030769935021034  24.5307924950023 33.69230769230769  34.89736226537094 33.69230769230769  C 45.26393203573957 33.69230769230769  53.57771187511956 26.12307621882512  53.57771187511956 16.89230698805589  C 53.57771187511956 7.661537757286657  45.26393203573957 0  34.89736226537094 0  C 24.5307924950023 0  16.217010697933016 7.5692314734825725  16.217010697933016 16.800000704251804  Z M 21.143696352321427 16.89230698805589  C 21.143696352321427 10.061537669255182  27.302053909729267 4.430768526517428  34.89736226537094 4.430768526517428  C 42.49267062101261 4.430768526517428  48.651030136109746 9.969231385451097  48.651030136109746 16.800000704251804  C 48.651030136109746 23.630770023052513  42.49267062101261 29.169229360727165  34.89736226537094 29.169229360727165  C 27.302053909729267 29.169229360727165  21.143696352321427 23.723076306856598  21.143696352321427 16.89230698805589  Z M 0 57.784613976111785  C 0 58.984613932096046  1.129031965989903 60  2.4633428271942064 60  C 2.4633428271942064 60  67.5366552151165 60  67.5366552151165 60  C 68.8709660763208 60  70 58.984613932096046  70 57.784613976111785  C 70 46.15384439321665  59.42815867575184 36.646154550405655  46.49560638587063 36.646154550405655  C 46.49560638587063 36.646154550405655  23.504399487197272 36.646154550405655  23.504399487197272 36.646154550405655  C 10.571847197316062 36.646154550405655  0 46.15384439321665  0 57.784613976111785  Z M 5.131965039025138 55.569227952223564  C 6.363636697333403 47.35384368896485  14.061584011159947 41.07692307692308  23.504399487197272 41.07692307692308  C 23.504399487197272 41.07692307692308  46.49560638587063 41.07692307692308  46.49560638587063 41.07692307692308  C 55.938421861907955 41.07692307692308  63.6363633026666 47.35384368896485  64.86803496097487 55.569227952223564  C 64.86803496097487 55.569227952223564  5.131965039025138 55.569227952223564  5.131965039025138 55.569227952223564  Z " fill-rule="nonzero" fill="rgba(133, 147, 152, 0.7490196078431373)" stroke="none" transform="matrix(1 0 0 1 447 399 )" class="fill" />
    <path d="M 16.217010697933016 16.800000704251804  C 16.217010697933016 26.030769935021034  24.5307924950023 33.69230769230769  34.89736226537094 33.69230769230769  C 45.26393203573957 33.69230769230769  53.57771187511956 26.12307621882512  53.57771187511956 16.89230698805589  C 53.57771187511956 7.661537757286657  45.26393203573957 0  34.89736226537094 0  C 24.5307924950023 0  16.217010697933016 7.5692314734825725  16.217010697933016 16.800000704251804  Z " stroke-width="2" stroke-dasharray="0" stroke="rgba(255, 255, 255, 0.5019607843137255)" fill="none" transform="matrix(1 0 0 1 447 399 )" class="stroke" mask="url(#Clip301)" />
    <path d="M 21.143696352321427 16.89230698805589  C 21.143696352321427 10.061537669255182  27.302053909729267 4.430768526517428  34.89736226537094 4.430768526517428  C 42.49267062101261 4.430768526517428  48.651030136109746 9.969231385451097  48.651030136109746 16.800000704251804  C 48.651030136109746 23.630770023052513  42.49267062101261 29.169229360727165  34.89736226537094 29.169229360727165  C 27.302053909729267 29.169229360727165  21.143696352321427 23.723076306856598  21.143696352321427 16.89230698805589  Z " stroke-width="2" stroke-dasharray="0" stroke="rgba(255, 255, 255, 0.5019607843137255)" fill="none" transform="matrix(1 0 0 1 447 399 )" class="stroke" mask="url(#Clip301)" />
    <path d="M 0 57.784613976111785  C 0 58.984613932096046  1.129031965989903 60  2.4633428271942064 60  C 2.4633428271942064 60  67.5366552151165 60  67.5366552151165 60  C 68.8709660763208 60  70 58.984613932096046  70 57.784613976111785  C 70 46.15384439321665  59.42815867575184 36.646154550405655  46.49560638587063 36.646154550405655  C 46.49560638587063 36.646154550405655  23.504399487197272 36.646154550405655  23.504399487197272 36.646154550405655  C 10.571847197316062 36.646154550405655  0 46.15384439321665  0 57.784613976111785  Z " stroke-width="2" stroke-dasharray="0" stroke="rgba(255, 255, 255, 0.5019607843137255)" fill="none" transform="matrix(1 0 0 1 447 399 )" class="stroke" mask="url(#Clip301)" />
    <path d="M 5.131965039025138 55.569227952223564  C 6.363636697333403 47.35384368896485  14.061584011159947 41.07692307692308  23.504399487197272 41.07692307692308  C 23.504399487197272 41.07692307692308  46.49560638587063 41.07692307692308  46.49560638587063 41.07692307692308  C 55.938421861907955 41.07692307692308  63.6363633026666 47.35384368896485  64.86803496097487 55.569227952223564  C 64.86803496097487 55.569227952223564  5.131965039025138 55.569227952223564  5.131965039025138 55.569227952223564  Z " stroke-width="2" stroke-dasharray="0" stroke="rgba(255, 255, 255, 0.5019607843137255)" fill="none" transform="matrix(1 0 0 1 447 399 )" class="stroke" mask="url(#Clip301)" />
  </g>
</svg>