<?xml version="1.0" encoding="utf-8"?>
<svg version="1.1" xmlns:xlink="http://www.w3.org/1999/xlink" width="59px" height="50px" xmlns="http://www.w3.org/2000/svg">
  <defs>
    <pattern id="BGPattern" patternUnits="userSpaceOnUse" alignment="0 0" imageRepeat="None" />
    <mask fill="white" id="Clip302">
      <path d="M 58.58570407008381 2.1189682067279825  C 59.13809829152984 1.6345058040158746  59.13809855536151 0.8662958185357222  58.58570407008381 0.3816806321206447  C 58.01962120616614 -0.11499250498304421  57.085575475247595 -0.12872962309593045  56.49950050255015 0.3510010683351987  C 56.49950050255015 0.3510010683351987  50.92188226207857 5.077790962655262  50.92188226207857 5.077790962655262  C 50.893424891493716 5.0988546648707205  50.857223280832734 5.107249558739053  50.83038684532064 5.130449915421327  C 50.80607225309039 5.151513617636785  50.79814724709522 5.179292995057863  50.77599390071258 5.20142502567124  C 50.77599390071258 5.20142502567124  21.525557555919676 29.98990083327069  21.525557555919676 29.98990083327069  C 19.254381779013208 28.45134405179924  16.412800871850095 27.493103298930755  13.279082847891006 27.493103298930755  C 5.9452208892962535 27.493103298930755  0 32.53142031880036  0 38.74655045700721  C 0 44.96168059521406  5.9452208892962535 50  13.279082847891006 50  C 20.60952273381174 49.993284192622504  26.55024103400473 44.95878053694579  26.558165695782012 38.74655045700721  C 26.558165695782012 36.09086025649489  25.42744084065154 33.68259081666022  23.61194123254144 31.757867934399155  C 23.61194123254144 31.757867934399155  43.55289903130311 14.858619059030303  43.55289903130311 14.858619059030303  C 43.55289903130311 14.858619059030303  50.85127949954095 21.04581586461612  50.85127949954095 21.04581586461612  C 51.12756675275191 21.28072056571432  51.50309428939715 21.412596904547193  51.89447133785183 21.41213901429309  C 52.28566840913425 21.41213901429309  52.66065539865544 21.280415408215873  52.9373029579865 21.04612113390752  C 53.513652039926214 20.557842827788626  53.51365212787011 19.766128187536086  52.93748306707461 19.277697321300128  C 52.93748306707461 19.277697321300128  45.63928270792488 13.090499323256138  45.63928270792488 13.090499323256138  L 51.89861384687828 7.785987481287945  C 51.89861384687828 7.785987481287945  55.02404685278448 10.434656488098122  55.02404685278448 10.434656488098122  C 55.30033410599544 10.669560946978253  55.675861642640676 10.801437528029194  56.06723869109536 10.80097963777509  C 56.45825543342995 10.80097963777509  56.83342275189897 10.669256031697875  57.11007031123003 10.43496175738952  C 57.68623937202553 9.946683451270626  57.686419305225854 9.154967618559915  57.110430529406244 8.666536752323958  C 57.110430529406244 8.666536752323958  53.984817414411935 6.01802038015948  53.984817414411935 6.01802038015948  C 53.984817414411935 6.01802038015948  58.58570407008381 2.1189682067279825  58.58570407008381 2.1189682067279825  Z M 23.60725839625068 38.74655045700721  C 23.60725839625068 43.5804896862862  18.98313766821311 47.4992339648719  13.279082847891006 47.4992339648719  C 7.5750280275689015 47.4992339648719  2.950907299531335 43.5804896862862  2.950907299531335 38.74655045700721  C 2.950907299531335 33.91261122772822  7.5750280275689015 29.99386933405886  13.279082847891006 29.99386933405886  C 18.980255922803412 29.999669360928145  23.60041435671014 33.9150533820594  23.60725839625068 38.74655045700721  Z " fill-rule="evenodd" />
    </mask>
  </defs>
  <g transform="matrix(1 0 0 1 -452 -557 )">
    <path d="M 58.58570407008381 2.1189682067279825  C 59.13809829152984 1.6345058040158746  59.13809855536151 0.8662958185357222  58.58570407008381 0.3816806321206447  C 58.01962120616614 -0.11499250498304421  57.085575475247595 -0.12872962309593045  56.49950050255015 0.3510010683351987  C 56.49950050255015 0.3510010683351987  50.92188226207857 5.077790962655262  50.92188226207857 5.077790962655262  C 50.893424891493716 5.0988546648707205  50.857223280832734 5.107249558739053  50.83038684532064 5.130449915421327  C 50.80607225309039 5.151513617636785  50.79814724709522 5.179292995057863  50.77599390071258 5.20142502567124  C 50.77599390071258 5.20142502567124  21.525557555919676 29.98990083327069  21.525557555919676 29.98990083327069  C 19.254381779013208 28.45134405179924  16.412800871850095 27.493103298930755  13.279082847891006 27.493103298930755  C 5.9452208892962535 27.493103298930755  0 32.53142031880036  0 38.74655045700721  C 0 44.96168059521406  5.9452208892962535 50  13.279082847891006 50  C 20.60952273381174 49.993284192622504  26.55024103400473 44.95878053694579  26.558165695782012 38.74655045700721  C 26.558165695782012 36.09086025649489  25.42744084065154 33.68259081666022  23.61194123254144 31.757867934399155  C 23.61194123254144 31.757867934399155  43.55289903130311 14.858619059030303  43.55289903130311 14.858619059030303  C 43.55289903130311 14.858619059030303  50.85127949954095 21.04581586461612  50.85127949954095 21.04581586461612  C 51.12756675275191 21.28072056571432  51.50309428939715 21.412596904547193  51.89447133785183 21.41213901429309  C 52.28566840913425 21.41213901429309  52.66065539865544 21.280415408215873  52.9373029579865 21.04612113390752  C 53.513652039926214 20.557842827788626  53.51365212787011 19.766128187536086  52.93748306707461 19.277697321300128  C 52.93748306707461 19.277697321300128  45.63928270792488 13.090499323256138  45.63928270792488 13.090499323256138  L 51.89861384687828 7.785987481287945  C 51.89861384687828 7.785987481287945  55.02404685278448 10.434656488098122  55.02404685278448 10.434656488098122  C 55.30033410599544 10.669560946978253  55.675861642640676 10.801437528029194  56.06723869109536 10.80097963777509  C 56.45825543342995 10.80097963777509  56.83342275189897 10.669256031697875  57.11007031123003 10.43496175738952  C 57.68623937202553 9.946683451270626  57.686419305225854 9.154967618559915  57.110430529406244 8.666536752323958  C 57.110430529406244 8.666536752323958  53.984817414411935 6.01802038015948  53.984817414411935 6.01802038015948  C 53.984817414411935 6.01802038015948  58.58570407008381 2.1189682067279825  58.58570407008381 2.1189682067279825  Z M 23.60725839625068 38.74655045700721  C 23.60725839625068 43.5804896862862  18.98313766821311 47.4992339648719  13.279082847891006 47.4992339648719  C 7.5750280275689015 47.4992339648719  2.950907299531335 43.5804896862862  2.950907299531335 38.74655045700721  C 2.950907299531335 33.91261122772822  7.5750280275689015 29.99386933405886  13.279082847891006 29.99386933405886  C 18.980255922803412 29.999669360928145  23.60041435671014 33.9150533820594  23.60725839625068 38.74655045700721  Z " fill-rule="nonzero" fill="rgba(133, 147, 152, 0.7490196078431373)" stroke="none" transform="matrix(1 0 0 1 452 557 )" class="fill" />
    <path d="M 58.58570407008381 2.1189682067279825  C 59.13809829152984 1.6345058040158746  59.13809855536151 0.8662958185357222  58.58570407008381 0.3816806321206447  C 58.01962120616614 -0.11499250498304421  57.085575475247595 -0.12872962309593045  56.49950050255015 0.3510010683351987  C 56.49950050255015 0.3510010683351987  50.92188226207857 5.077790962655262  50.92188226207857 5.077790962655262  C 50.893424891493716 5.0988546648707205  50.857223280832734 5.107249558739053  50.83038684532064 5.130449915421327  C 50.80607225309039 5.151513617636785  50.79814724709522 5.179292995057863  50.77599390071258 5.20142502567124  C 50.77599390071258 5.20142502567124  21.525557555919676 29.98990083327069  21.525557555919676 29.98990083327069  C 19.254381779013208 28.45134405179924  16.412800871850095 27.493103298930755  13.279082847891006 27.493103298930755  C 5.9452208892962535 27.493103298930755  0 32.53142031880036  0 38.74655045700721  C 0 44.96168059521406  5.9452208892962535 50  13.279082847891006 50  C 20.60952273381174 49.993284192622504  26.55024103400473 44.95878053694579  26.558165695782012 38.74655045700721  C 26.558165695782012 36.09086025649489  25.42744084065154 33.68259081666022  23.61194123254144 31.757867934399155  C 23.61194123254144 31.757867934399155  43.55289903130311 14.858619059030303  43.55289903130311 14.858619059030303  C 43.55289903130311 14.858619059030303  50.85127949954095 21.04581586461612  50.85127949954095 21.04581586461612  C 51.12756675275191 21.28072056571432  51.50309428939715 21.412596904547193  51.89447133785183 21.41213901429309  C 52.28566840913425 21.41213901429309  52.66065539865544 21.280415408215873  52.9373029579865 21.04612113390752  C 53.513652039926214 20.557842827788626  53.51365212787011 19.766128187536086  52.93748306707461 19.277697321300128  C 52.93748306707461 19.277697321300128  45.63928270792488 13.090499323256138  45.63928270792488 13.090499323256138  L 51.89861384687828 7.785987481287945  C 51.89861384687828 7.785987481287945  55.02404685278448 10.434656488098122  55.02404685278448 10.434656488098122  C 55.30033410599544 10.669560946978253  55.675861642640676 10.801437528029194  56.06723869109536 10.80097963777509  C 56.45825543342995 10.80097963777509  56.83342275189897 10.669256031697875  57.11007031123003 10.43496175738952  C 57.68623937202553 9.946683451270626  57.686419305225854 9.154967618559915  57.110430529406244 8.666536752323958  C 57.110430529406244 8.666536752323958  53.984817414411935 6.01802038015948  53.984817414411935 6.01802038015948  C 53.984817414411935 6.01802038015948  58.58570407008381 2.1189682067279825  58.58570407008381 2.1189682067279825  Z " stroke-width="2" stroke-dasharray="0" stroke="rgba(255, 255, 255, 0.5019607843137255)" fill="none" transform="matrix(1 0 0 1 452 557 )" class="stroke" mask="url(#Clip302)" />
    <path d="M 23.60725839625068 38.74655045700721  C 23.60725839625068 43.5804896862862  18.98313766821311 47.4992339648719  13.279082847891006 47.4992339648719  C 7.5750280275689015 47.4992339648719  2.950907299531335 43.5804896862862  2.950907299531335 38.74655045700721  C 2.950907299531335 33.91261122772822  7.5750280275689015 29.99386933405886  13.279082847891006 29.99386933405886  C 18.980255922803412 29.999669360928145  23.60041435671014 33.9150533820594  23.60725839625068 38.74655045700721  Z " stroke-width="2" stroke-dasharray="0" stroke="rgba(255, 255, 255, 0.5019607843137255)" fill="none" transform="matrix(1 0 0 1 452 557 )" class="stroke" mask="url(#Clip302)" />
  </g>
</svg>